<svg xmlns="http://www.w3.org/2000/svg" version="1.1" xmlns:xlink="http://www.w3.org/1999/xlink" xmlns:svgjs="http://svgjs.dev/svgjs" width="1000" height="1069" viewBox="0 0 1000 1069"><g transform="matrix(1,0,0,1,0.16581397596041825,0.4335927273538118)"><svg viewBox="0 0 231 247" data-background-color="#ffffff" preserveAspectRatio="xMidYMid meet" height="1069" width="1000" xmlns="http://www.w3.org/2000/svg" xmlns:xlink="http://www.w3.org/1999/xlink"><g id="tight-bounds" transform="matrix(1,0,0,1,-0.038168977037429386,-0.09997365579206985)"><svg viewBox="0 0 231.07622153846154 247.2" height="247.2" width="231.07622153846154"><g><svg viewBox="0 0 231.07622153846154 247.2" height="247.2" width="231.07622153846154"><g><svg viewBox="0 0 231.07622153846154 247.2" height="247.2" width="231.07622153846154"><g><svg viewBox="0 0 231.07622153846154 247.2" height="247.2" width="231.07622153846154"><g><svg viewBox="0 0 231.07622153846154 247.2" height="247.2" width="231.07622153846154"><path d="M230.535 53.02C229.449 27.36 226.353 20.227 226.353 20.227 216.847-6.202 204.985-0.506 194.328 3.292 175.512 3.446 156.773 9.091 138.001 12.119 98.599 12.581 58.861 4.986 19.655 23.717 15.972 29.464-3.821 24.846 0.655 56.304 1.828 69.39 6.108 83.913 5.978 95.922 6.565 98.026 7.379 93.202 7.727 96.23 8.944 104.39 10.932 100.541 12.561 105.365 10.291 118.246 11.92 128.971 13.474 140.21 10.736 143.135 7.227 141.749 5.652 151.449 5.489 158.479 4.609 157.145 3.642 156.837 2.936 156.632 1.513 157.402 1.752 159.608 2.567 167.152-0.931 171.514 1.263 178.904-0.247 186.91 2.306 193.838 1.959 202.511 1.915 204.255 2.154 205.744 2.534 206.154 4.218 208.361 1.763 212.672 2.024 217.342 19.297 249.262 38.036 227.195 55.732 241.872 60.328 231.608 56.873 245.516 58.709 243.36 60.143 240.846 61.186 251.263 62.805 245.362 63.054 243.668 62.674 239.665 63.565 240.435 64.032 240.846 64.445 240.743 64.51 238.382 64.608 234.841 63.75 237.048 63.521 235.201 65.987 225.861 65.379 248.081 67.693 247.158 67.584 244.438 66.911 240.538 68.291 241.051 69.659 237.151 69.703 233.918 70.919 242.693 70.963 244.592 71.18 245.926 71.528 246.85 75.33 237.305 79.11 250.237 83.097 245.926 85.542 241.205 87.888 248.492 90.365 246.696 91.234 245.259 92.114 242.693 92.95 247.004 103.195 247.928 114.112 244.079 123.824 247.158 149.777 241.41 177.511 249.518 204.876 241.923 211.329 238.998 218.031 234.841 224.321 231.506 224.321 231.506 229.416 222.371 229.416 181.316S230.503 145.393 230.666 112.703C230.829 80.013 231.589 78.679 230.503 53.02Z" opacity="1" fill="#ff0000" data-fill-palette-color="tertiary"></path><g transform="matrix(1,0,0,1,55.768319999999996,26.230666666666668)"><svg width="119.53958153846155" viewBox="2 -32.5 19.95 32.5" height="194.73866666666666" data-palette-color="#ffffff"><path d="M21.95-32.5L14.6 0 9.35 0 2-32.5 5.5-32.5 11.95-3.85 18.45-32.5 21.95-32.5Z" opacity="1" transform="matrix(1,0,0,1,0,0)" fill="#ffffff" class="undefined-text-0" data-fill-palette-color="quaternary" id="text-0"></path></svg></g></svg></g></svg></g></svg></g><g></g></svg></g><defs></defs></svg><rect width="231.07622153846154" height="247.2" fill="none" stroke="none" visibility="hidden"></rect></g></svg></g></svg>